<svg xmlns="http://www.w3.org/2000/svg" width="1200" height="360" viewBox="0 0 1200 360" role="img" aria-labelledby="title desc">
  <title id="title">Qiyang Li profile banner</title>
  <desc id="desc">A dark blue celestial banner introducing Qiyang Li</desc>
  <defs>
    <linearGradient id="background" x1="0" y1="0" x2="1" y2="1">
      <stop offset="0" stop-color="#071626"/>
      <stop offset="0.52" stop-color="#102d49"/>
      <stop offset="1" stop-color="#241c3d"/>
    </linearGradient>
    <radialGradient id="glow" cx="0.78" cy="0.2" r="0.62">
      <stop offset="0" stop-color="#68d5ff" stop-opacity="0.34"/>
      <stop offset="0.45" stop-color="#5676ff" stop-opacity="0.12"/>
      <stop offset="1" stop-color="#071626" stop-opacity="0"/>
    </radialGradient>
    <linearGradient id="accent" x1="0" y1="0" x2="1" y2="0">
      <stop offset="0" stop-color="#72ddff"/>
      <stop offset="1" stop-color="#f3a9cf"/>
    </linearGradient>
    <filter id="blur"><feGaussianBlur stdDeviation="18"/></filter>
  </defs>
  <rect width="1200" height="360" rx="28" fill="url(#background)"/>
  <rect width="1200" height="360" rx="28" fill="url(#glow)"/>
  <circle cx="1018" cy="82" r="44" fill="#e9f7ff" opacity="0.92"/>
  <circle cx="1018" cy="82" r="66" fill="#7edcff" opacity="0.14" filter="url(#blur)"/>
  <path d="M785 256c102-96 204-95 322-6" fill="none" stroke="url(#accent)" stroke-width="2" opacity="0.55"/>
  <path d="M836 282c78-63 160-64 248-13" fill="none" stroke="#8ccff1" stroke-width="1" opacity="0.34"/>
  <g fill="#d8f4ff">
    <circle cx="804" cy="72" r="2"/><circle cx="882" cy="131" r="1.5"/><circle cx="1100" cy="150" r="2"/>
    <circle cx="947" cy="215" r="1.5"/><circle cx="1142" cy="52" r="1.5"/><circle cx="748" cy="185" r="1"/>
  </g>
  <rect x="76" y="74" width="64" height="4" rx="2" fill="url(#accent)"/>
  <text x="76" y="142" fill="#ffffff" font-family="Segoe UI, Arial, sans-serif" font-size="58" font-weight="700">Qiyang Li</text>
  <text x="78" y="190" fill="#afd5e8" font-family="Segoe UI, Arial, sans-serif" font-size="22" letter-spacing="1.2">AGENTS · RL · ADVENTURE</text>
  <text x="78" y="253" fill="#ffffff" font-family="Georgia, serif" font-size="25" font-style="italic">Ad astra abyssosque.</text>
  <text x="78" y="298" fill="#8fb1c5" font-family="Segoe UI, Arial, sans-serif" font-size="17">Exploring intelligent agents and every adventure beyond the screen.</text>
</svg>
